<svg xmlns="http://www.w3.org/2000/svg" fill="none" viewBox="0 0 283 64"><path fill="black" d="m141.04 16 c 2.645 0 5.29-1.133 7.25-3.134l 6.52-6.64 c 1.95-2 1.95-5.267 0-7.267l-6.52-6.64c-1.96-2.001-4.605-3.134-7.25-3.134s-5.29 1.133-7.25 3.134l-6.52 6.64c-1.95 2-1.95 5.267 0 7.267l6.52 6.64c1.96 2.001 4.605 3.134 7.25 3.134zM77.67 28c2.645 0 5.29-1.133 7.25-3.134L91.44 18.226c1.95-2 1.95-5.267 0-7.267l-6.52-6.64c-1.96-2.001-4.605-3.134-7.25-3.134s-5.29 1.133-7.25 3.134l-6.52 6.64c-1.95 2-1.95 5.267 0 7.267L70.42 24.866C72.38 26.867 75.025 28 77.67 28zm132.76 37.2c1.52 1.52 3.984 1.52 5.504 0l6.64-6.64c2-1.95 2-5.267 0-7.267l-6.64-6.64c-1.52-1.52-3.984-1.52-5.504 0l-6.64 6.64c-2 1.95-2 5.267 0 7.267l6.64 6.64zM88.67 8.373a2.667 2.667 0 1 0 0-5.334 2.667 2.667 0 0 0 0 5.334zm-77.342 0a2.667 2.667 0 1 0 0-5.334 2.667 2.667 0 0 0 0 5.334zM282.59 0H0v64h283.59V0z"/></svg>